{"title":"Son.of.a.Gun.2014.BRRip.480p.x264.AAC-VYTO [P2PDL]","uid":11696882,"size":372796541,"categoryP":"video","categoryS":"movies","magnet":"?xt=urn:btih:d01d4bdbb082b75d8d264fa923689682586f30b0&amp;dn=Son.of.a.Gun.2014.BRRip.480p.x264.AAC-VYTO+%5BP2PDL%5D&amp;tr=udp%3A%2F%2Ftracker.openbittorrent.com%3A80&amp;tr=udp%3A%2F%2Fopen.demonii.com%3A1337&amp;tr=udp%3A%2F%2Ftracker.coppersurfer.tk%3A6969&amp;tr=udp%3A%2F%2Fexodus.desync.com%3A6969","seeders":1,"leechers":2,"uploader":"ValidusVyto","files":6,"time":1423750810,"description":"Son.of.a.Gun.2014.BRRip.480p.x264.AAC-VYTO\n\n\nGenre: Action | Crime | Drama\nIMDb: http://www.imdb.com/title/tt2452200/\n\nFormat                      : MPEG-4\nFile size                   : 351 MiB\nOverall bit rate mode       : Variable\nOverall bit rate            : 452 Kbps\n\nVideo\nFormat                      : AVC\nDuration                    : 1h 48mn\nBit rate                    : 417 Kbps\nWidth                       : 720 pixels\nHeight                      : 304 pixels\nDisplay aspect ratio        : 2.35:1\nFrame rate mode             : Constant\nFrame rate                  : 24.000 fps\nBit depth                   : 8 bits\nStream size                 : 324 MiB (92%)\nWriting library             : x264 core 144\n\nAudio\nFormat                      : AAC\nBit rate mode               : Variable\nBit rate                    : 32.0 Kbps\nChannel(s)                  : 2 channels\nChannel positions           : Front: L R \nSampling rate               : 48.0 KHz\nStream size                 : 24.9 MiB (7%)\nLanguage                    : English\n\nSubtitle                    : Yes(English)\nSource                      : 720p.BluRay.X264-CADAVER\n &lt;a href=&quot;\nhttp://someimage.com/iYSqXgY&quot; rel=&quot;nofollow&quot; target=&quot;_NEW&quot;&gt;\nhttp://someimage.com/iYSqXgY&lt;/a&gt; &lt;a href=&quot;\nhttp://someimage.com/oR7rKVt&quot; rel=&quot;nofollow&quot; target=&quot;_NEW&quot;&gt;\nhttp://someimage.com/oR7rKVt&lt;/a&gt; &lt;a href=&quot;\nhttp://someimage.com/yVy893g&quot; rel=&quot;nofollow&quot; target=&quot;_NEW&quot;&gt;\nhttp://someimage.com/yVy893g&lt;/a&gt; &lt;a href=&quot;\nhttp://someimage.com/qQOxYkU&quot; rel=&quot;nofollow&quot; target=&quot;_NEW&quot;&gt;\nhttp://someimage.com/qQOxYkU&lt;/a&gt; &lt;a href=&quot;\nhttp://someimage.com/AdV6qOp&quot; rel=&quot;nofollow&quot; target=&quot;_NEW&quot;&gt;\nhttp://someimage.com/AdV6qOp&lt;/a&gt; &lt;a href=&quot;\nhttp://someimage.com/XMAMK2R&quot; rel=&quot;nofollow&quot; target=&quot;_NEW&quot;&gt;\nhttp://someimage.com/XMAMK2R&lt;/a&gt; &lt;a href=&quot;\nhttp://someimage.com/WJyQvSH&quot; rel=&quot;nofollow&quot; target=&quot;_NEW&quot;&gt;\nhttp://someimage.com/WJyQvSH&lt;/a&gt; &lt;a href=&quot;\nhttp://someimage.com/VbY3fb9&quot; rel=&quot;nofollow&quot; target=&quot;_NEW&quot;&gt;\nhttp://someimage.com/VbY3fb9&lt;/a&gt; &lt;a href=&quot;\nhttp://someimage.com/QU0y0Qa&quot; rel=&quot;nofollow&quot; target=&quot;_NEW&quot;&gt;\nhttp://someimage.com/QU0y0Qa&lt;/a&gt;\n\n----------------------------------------------------------------------------------------------------\n\n\nEncoder Notes: Looking For Early Access To Anything You Can Provide DVDScr, R5, DVDR, BluRay, Direct\nAudio, Music Releases and Seedboxes. If You Got anything to offer please contact us.\n\nWe require dedicated servers, so as to do more and fast releases of movies.\nSupport us by sending us LC - LezHMTo2cYaiztCCcWxB4cNFVNVpWW3GSx","torrent":{"xt":"urn:btih:d01d4bdbb082b75d8d264fa923689682586f30b0","amp;dn":"Son.of.a.Gun.2014.BRRip.480p.x264.AAC-VYTO+%5BP2PDL%5D","amp;tr":["udp%3A%2F%2Ftracker.openbittorrent.com%3A80","udp%3A%2F%2Fopen.demonii.com%3A1337","udp%3A%2F%2Ftracker.coppersurfer.tk%3A6969","udp%3A%2F%2Fexodus.desync.com%3A6969"],"infoHash":"d01d4bdbb082b75d8d264fa923689682586f30b0","infoHashBuffer":{"type":"Buffer","data":[208,29,75,219,176,130,183,93,141,38,79,169,35,104,150,130,88,111,48,176]},"announce":[],"urlList":[]}}